<?xml version="1.0"?>
<svg width="15" height="15" xmlns="http://www.w3.org/2000/svg" xmlns:svg="http://www.w3.org/2000/svg" data-arp-injected="true" data-darkreader-mode="filter" enable-background="new 0 0 45 45" version="1.1" xml:space="preserve">
 <style class="darkreader" id="dark-reader-style">@media screen {

/* Leading rule */
html {
  -webkit-filter: invert(100%) hue-rotate(180deg) !important;
  filter: invert(100%) hue-rotate(180deg) !important;
}

/* Reverse rule */
img,
video,
:not(object):not(body)&gt;embed,
object,
svg image,
[style*=&quot;background:url&quot;],
[style*=&quot;background-image:url&quot;],
[style*=&quot;background: url&quot;],
[style*=&quot;background-image: url&quot;],
[background],
twitterwidget,
.sr-reader,
.sr-backdrop,
iframe:fullscreen,
[class=&quot;opinary-iframe&quot;] {
  -webkit-filter: invert(100%) hue-rotate(180deg) !important;
  filter: invert(100%) hue-rotate(180deg) !important;
}
[style*=&quot;background:url&quot;] *,
[style*=&quot;background-image:url&quot;] *,
[style*=&quot;background: url&quot;] *,
[style*=&quot;background-image: url&quot;] *,
input,
[background] *,
img[src^=&quot;https://s0.wp.com/latex.php&quot;],
twitterwidget .NaturalImage-image {
  -webkit-filter: none !important;
  filter: none !important;
}
.compatibility-with-darkreader-below-4-3-3 {
  background: white !important;
}

/* Text contrast */
html {
  text-shadow: 0 0 0 !important;
}

/* Full screen */
:-webkit-full-screen, :-webkit-full-screen * {
  -webkit-filter: none !important;
  filter: none !important;
}
:-moz-full-screen, :-moz-full-screen * {
  -webkit-filter: none !important;
  filter: none !important;
}
:fullscreen, :fullscreen * {
  -webkit-filter: none !important;
  filter: none !important;
}

/* Page background */
html {
  background: rgb(255,255,255) !important;
}

/* Custom rules */
.compatibility-with-darkreader-below-4-3-3 {
    background: white !important;
}

}</style>
 <metadata id="metadata8">image/svg+xml</metadata>
 <defs id="defs6">
  <clipPath clipPathUnits="userSpaceOnUse" id="clipPath16">
   <path d="m0,36l36,0l0,-36l-36,0l0,36z" id="path18"/>
  </clipPath>
  <clipPath clipPathUnits="userSpaceOnUse" id="clipPath16-9">
   <path d="m4,31c-2.21,0 -4,-1.79 -4,-4l0,0l0,-18c0,-2.21 1.79,-4 4,-4l0,0l28,0c2.21,0 4,1.79 4,4l0,0l0,18c0,2.21 -1.79,4 -4,4l0,0l-28,0z" id="path18-6"/>
  </clipPath>
  <clipPath clipPathUnits="userSpaceOnUse" id="clipPath5047">
   <path d="m25.2,-54.86l0,0.04l0,2.46c0,2.76 2.24,5 4.99,5l34.93,0c2.75,0 4.98,-2.24 4.98,-5l0,-2.46l0,-0.04l0,-6.87l0,-12.43c0,-3.15 -2.23,-5.7 -4.98,-5.7l-34.93,0c-2.75,0 -4.99,2.55 -4.99,5.7l0,12.43l0,6.87z" fill="#5bcefa" fill-rule="nonzero" id="path5049"/>
  </clipPath>
  <clipPath clipPathUnits="userSpaceOnUse" id="clipPath5116">
   <path d="m-19,-39.04l0,0.05l0,2.45c0,2.76 2.24,5 5,5l35,0c2.76,0 5,-2.24 5,-5l0,-2.45l0,-0.05l0,-6.86l0,-12.44c0,-3.15 -2.24,-5.7 -5,-5.7l-35,0c-2.76,0 -5,2.55 -5,5.7l0,12.44l0,6.86z" fill="#333ebd" fill-rule="nonzero" id="path5118"/>
  </clipPath>
  <clipPath clipPathUnits="userSpaceOnUse" id="clipPath5116-2">
   <path d="m-19,-39.04l0,0.05l0,2.45c0,2.76 2.24,5 5,5l35,0c2.76,0 5,-2.24 5,-5l0,-2.45l0,-0.05l0,-6.86l0,-12.44c0,-3.15 -2.24,-5.7 -5,-5.7l-35,0c-2.76,0 -5,2.55 -5,5.7l0,12.44l0,6.86z" fill="#333ebd" fill-rule="nonzero" id="path5118-6"/>
  </clipPath>
  <clipPath clipPathUnits="userSpaceOnUse" id="clipPath5250">
   <path d="m-4.65,-44.03l0,0.04l0,2.46c0,2.76 2.24,5 5,5l35.01,0c2.76,0 4.99,-2.24 4.99,-5l0,-2.46l0,-0.04l0,-6.87l0,-12.43c0,-3.15 -2.23,-5.7 -4.99,-5.7l-35.01,0c-2.76,0 -5,2.55 -5,5.7l0,12.43l0,6.87z" fill="#000000" fill-rule="nonzero" id="path5252"/>
  </clipPath>
  <clipPath clipPathUnits="userSpaceOnUse" id="clipPath5277">
   <path d="m29.62,-97.84l0,0.05l0,2.45c0,2.76 2.24,5 5,5l35,0c2.76,0 5,-2.24 5,-5l0,-2.45l0,-0.05l0,-6.86l0,-12.43c0,-3.15 -2.24,-5.71 -5,-5.71l-35,0c-2.76,0 -5,2.56 -5,5.71l0,12.43l0,6.86z" fill="#5bcefa" fill-rule="nonzero" id="path5279"/>
  </clipPath>
  <clipPath clipPathUnits="userSpaceOnUse" id="clipPath5277-8">
   <path d="m29.62,-97.84l0,0.05l0,2.45c0,2.76 2.24,5 5,5l35,0c2.76,0 5,-2.24 5,-5l0,-2.45l0,-0.05l0,-6.86l0,-12.43c0,-3.15 -2.24,-5.71 -5,-5.71l-35,0c-2.76,0 -5,2.56 -5,5.71l0,12.43l0,6.86z" fill="#5bcefa" fill-rule="nonzero" id="path5279-0"/>
  </clipPath>
  <clipPath clipPathUnits="userSpaceOnUse" id="clipPath5326">
   <path d="m79.51,-96.67l0,0.05l0,2.45c0,2.77 2.24,5 5,5l35,0c2.76,0 5,-2.23 5,-5l0,-2.45l0,-0.05l0,-6.86l0,-12.43c0,-3.15 -2.24,-5.71 -5,-5.71l-35,0c-2.76,0 -5,2.56 -5,5.71l0,12.43l0,6.86z" fill="#5bcefa" fill-rule="nonzero" id="path5328"/>
  </clipPath>
  <clipPath clipPathUnits="userSpaceOnUse" id="clipPath5250-2">
   <path d="m-4.65,-44.03l0,0.04l0,2.46c0,2.76 2.24,5 5,5l35.01,0c2.76,0 4.99,-2.24 4.99,-5l0,-2.46l0,-0.04l0,-6.87l0,-12.43c0,-3.15 -2.23,-5.7 -4.99,-5.7l-35.01,0c-2.76,0 -5,2.55 -5,5.7l0,12.43l0,6.87z" fill="#000000" fill-rule="nonzero" id="path5252-8"/>
  </clipPath>
  <clipPath clipPathUnits="userSpaceOnUse" id="clipPath5326-4">
   <path d="m79.51,-96.67l0,0.05l0,2.45c0,2.77 2.24,5 5,5l35,0c2.76,0 5,-2.23 5,-5l0,-2.45l0,-0.05l0,-6.86l0,-12.43c0,-3.15 -2.24,-5.71 -5,-5.71l-35,0c-2.76,0 -5,2.56 -5,5.71l0,12.43l0,6.86z" fill="#5bcefa" fill-rule="nonzero" id="path5328-4"/>
  </clipPath>
  <clipPath clipPathUnits="userSpaceOnUse" id="clipPath5277-0">
   <path d="m29.62,-97.84l0,0.05l0,2.45c0,2.76 2.24,5 5,5l35,0c2.76,0 5,-2.24 5,-5l0,-2.45l0,-0.05l0,-6.86l0,-12.43c0,-3.15 -2.24,-5.71 -5,-5.71l-35,0c-2.76,0 -5,2.56 -5,5.71l0,12.43l0,6.86z" fill="#5bcefa" fill-rule="nonzero" id="path5279-01"/>
  </clipPath>
  <clipPath clipPathUnits="userSpaceOnUse" id="clipPath5472">
   <path d="m50.33,-59.92l0,0.05l0,2.45c0,2.76 2.23,5 5,5l35,0c2.76,0 5,-2.24 5,-5l0,-2.45l0,-0.05l0,-6.86l0,-12.43c0,-3.15 -2.24,-5.71 -5,-5.71l-35,0c-2.77,0 -5,2.56 -5,5.71l0,12.43l0,6.86z" fill="#5bcefa" fill-rule="nonzero" id="path5474"/>
  </clipPath>
  <clipPath clipPathUnits="userSpaceOnUse" id="clipPath5472-9">
   <path d="m50.33,-59.92l0,0.05l0,2.45c0,2.76 2.23,5 5,5l35,0c2.76,0 5,-2.24 5,-5l0,-2.45l0,-0.05l0,-6.86l0,-12.43c0,-3.15 -2.24,-5.71 -5,-5.71l-35,0c-2.77,0 -5,2.56 -5,5.71l0,12.43l0,6.86z" fill="#5bcefa" fill-rule="nonzero" id="path5474-1"/>
  </clipPath>
  <clipPath clipPathUnits="userSpaceOnUse" id="clipPath5277-9">
   <path d="m29.62,-97.84l0,0.05l0,2.45c0,2.76 2.24,5 5,5l35,0c2.76,0 5,-2.24 5,-5l0,-2.45l0,-0.05l0,-6.86l0,-12.43c0,-3.15 -2.24,-5.71 -5,-5.71l-35,0c-2.76,0 -5,2.56 -5,5.71l0,12.43l0,6.86z" fill="#5bcefa" fill-rule="nonzero" id="path5279-012"/>
  </clipPath>
  <clipPath clipPathUnits="userSpaceOnUse" id="clipPath5666">
   <path d="m-45.48,-1.76l0,0.05l0,2.45c0,2.76 2.24,5 5,5l35,0c2.76,0 5,-2.24 5,-5l0,-2.45l0,-0.05l0,-6.86l0,-12.43c0,-3.15 -2.24,-5.71 -5,-5.71l-35,0c-2.76,0 -5,2.56 -5,5.71l0,12.43l0,6.86z" fill="#5bcefa" fill-rule="nonzero" id="path5668"/>
  </clipPath>
  <clipPath clipPathUnits="userSpaceOnUse" id="clipPath5277-3">
   <path d="m29.62,-97.84l0,0.05l0,2.45c0,2.76 2.24,5 5,5l35,0c2.76,0 5,-2.24 5,-5l0,-2.45l0,-0.05l0,-6.86l0,-12.43c0,-3.15 -2.24,-5.71 -5,-5.71l-35,0c-2.76,0 -5,2.56 -5,5.71l0,12.43l0,6.86z" fill="#5bcefa" fill-rule="nonzero" id="path5279-7"/>
  </clipPath>
  <clipPath clipPathUnits="userSpaceOnUse" id="clipPath5742">
   <path d="m85.5,4.25l0,0.05l0,2.45c0,2.76 2.24,5 5,5l35,0c2.76,0 5,-2.24 5,-5l0,-2.45l0,-0.05l0,-6.87l0,-12.43c0,-3.15 -2.24,-5.7 -5,-5.7l-35,0c-2.76,0 -5,2.55 -5,5.7l0,12.43l0,6.87z" fill="#5bcefa" fill-rule="nonzero" id="path5744"/>
  </clipPath>
  <clipPath clipPathUnits="userSpaceOnUse" id="clipPath5774">
   <path d="m92.58,10.91l0,0.05l0,2.45c0,2.76 2.24,5 5,5l35,0c2.76,0 5,-2.24 5,-5l0,-2.45l0,-0.05l0,-6.87l0,-12.43c0,-3.15 -2.24,-5.7 -5,-5.7l-35,0c-2.76,0 -5,2.55 -5,5.7l0,12.43l0,6.87z" fill="#5bcefa" fill-rule="nonzero" id="path5776"/>
  </clipPath>
  <clipPath clipPathUnits="userSpaceOnUse" id="clipPath5277-1">
   <path d="m29.62,-97.84l0,0.05l0,2.45c0,2.76 2.24,5 5,5l35,0c2.76,0 5,-2.24 5,-5l0,-2.45l0,-0.05l0,-6.86l0,-12.43c0,-3.15 -2.24,-5.71 -5,-5.71l-35,0c-2.76,0 -5,2.56 -5,5.71l0,12.43l0,6.86z" fill="#5bcefa" fill-rule="nonzero" id="path5279-9"/>
  </clipPath>
  <clipPath clipPathUnits="userSpaceOnUse" id="clipPath5326-5">
   <path d="m79.51,-96.67l0,0.05l0,2.45c0,2.77 2.24,5 5,5l35,0c2.76,0 5,-2.23 5,-5l0,-2.45l0,-0.05l0,-6.86l0,-12.43c0,-3.15 -2.24,-5.71 -5,-5.71l-35,0c-2.76,0 -5,2.56 -5,5.71l0,12.43l0,6.86z" fill="#5bcefa" fill-rule="nonzero" id="path5328-8"/>
  </clipPath>
  <clipPath clipPathUnits="userSpaceOnUse" id="clipPath5885">
   <path d="m66.24,48.8l0,0.05l0,2.45c0,2.76 2.24,5 5,5l35,0c2.76,0 5,-2.24 5,-5l0,-2.45l0,-0.05l0,-6.87l0,-12.43c0,-3.15 -2.24,-5.7 -5,-5.7l-35,0c-2.76,0 -5,2.55 -5,5.7l0,12.43l0,6.87z" fill="#5bcefa" fill-rule="nonzero" id="path5887"/>
  </clipPath>
  <clipPath clipPathUnits="userSpaceOnUse" id="clipPath5774-5">
   <path d="m92.58,10.91l0,0.05l0,2.45c0,2.76 2.24,5 5,5l35,0c2.76,0 5,-2.24 5,-5l0,-2.45l0,-0.05l0,-6.87l0,-12.43c0,-3.15 -2.24,-5.7 -5,-5.7l-35,0c-2.76,0 -5,2.55 -5,5.7l0,12.43l0,6.87z" fill="#5bcefa" fill-rule="nonzero" id="path5776-6"/>
  </clipPath>
  <clipPath clipPathUnits="userSpaceOnUse" id="clipPath1315">
   <path d="m45.24,12.79c0,-3.15 -2.24,-5.7 -5,-5.7l-35,0c-2.77,0 -5,2.55 -5,5.7l0,11.61l0,7.69l0,0.04l0,2.46c0,2.76 2.23,5 5,5l35,0c2.76,0 5,-2.24 5,-5l0,-2.46l0,-0.04l0,-7.98l0,-11.32z" fill="#8a1e04" fill-rule="nonzero" id="path1317" stroke-width="1"/>
  </clipPath>
 </defs>
 <g class="layer">
  <title>Layer 1</title>
  <g id="g20" transform="matrix(1.25,0,0,-1.4260104,46.640625,146.09375)"/>
  <g id="svg_3">
   <g id="svg_1">
    <path d="m4.52,10.71c-0.22,1.03 0.58,1.25 1.3,1.67c0.39,0.23 0.7,0.7 1.18,0.76c0.47,0.05 0.73,-0.3 1.1,-0.51c0.24,-0.15 0.53,-0.19 0.77,-0.32c0.57,-0.29 0.88,-0.8 0.9,-1.43c-0.47,0.27 -0.9,0.64 -1.42,0.81c-1.38,0.44 -2.67,-0.3 -3.82,-0.97z" fill="#acdd4d" id="path1285" stroke-width="0.05"/>
    <path d="m7.6,9.12c-0.91,-0.3 -1.01,-0.99 -0.85,-1.83c-0.82,0.26 -0.73,0.87 -0.42,1.51c0.1,0.19 0.14,0.45 0.36,0.54c0.32,0.14 0.67,-0.02 0.91,-0.22" fill="#acdd4d" id="path1279" stroke-width="0.05"/>
    <path d="m8.99,7.22c0.11,0.39 0.27,0.76 0.27,1.18c-0.01,1.2 -1.02,1.78 -2.03,2.07l0,0.08c0.5,0.3 1.07,0.44 1.63,0.18c0.23,-0.1 0.4,-0.3 0.62,-0.41c0.22,-0.11 0.61,-0.07 0.73,-0.33c0.1,-0.22 -0.02,-0.51 -0.02,-0.74c-0.01,-0.96 -0.07,-1.85 -1.19,-2.03" fill="#acdd4d" id="path1277" stroke-width="0.05"/>
    <path d="m6.83,10.31c-1.03,-0.29 -1.74,-1.11 -1.77,-2.2c-0.01,-0.39 0.11,-0.79 0.18,-1.18c-1.22,0.26 -1.23,1.18 -1.14,2.2c0.02,0.27 -0.1,0.62 0.08,0.85c0.16,0.19 0.48,0.19 0.7,0.3c0.67,0.36 1.4,0.88 1.95,0.04" fill="#acdd4d" id="path1275" stroke-width="0.05"/>
    <path d="m6.75,6.64c0.93,0.23 1.22,0.83 1.02,1.75c0.76,-0.3 0.78,-0.82 0.42,-1.46c-0.11,-0.21 -0.23,-0.42 -0.46,-0.5c-0.33,-0.13 -0.7,0.01 -0.97,0.22" fill="#acdd4d" id="path1273" stroke-width="0.05"/>
    <path d="m9.03,7.01c0.56,-0.31 0.79,-0.99 0.33,-1.52c-0.21,-0.24 -0.51,-0.33 -0.75,-0.53c-0.2,-0.16 -0.32,-0.44 -0.56,-0.56c-0.36,-0.16 -0.7,0.11 -1.05,0.2c-0.31,0.08 -0.63,0.06 -0.93,0.2c-0.45,0.22 -1.29,1.16 -0.65,1.64c0.24,0.18 0.83,-0.56 1.06,-0.68c0.72,-0.36 1.89,-0.32 2.37,0.43c0.16,0.24 0.16,0.53 0.19,0.81" fill="#acdd4d" id="path1271" stroke-width="0.05"/>
    <path d="m8.63,3.88c0.33,0.47 0.93,0.68 1.33,1.11c0.61,0.65 1.14,1.85 1.08,2.76c-0.02,0.38 -0.19,0.74 -0.3,1.1c0.77,-0.07 1.62,-0.5 1.61,-1.38c-0.01,-0.42 -0.22,-0.78 -0.26,-1.18c-0.02,-0.33 0.28,-0.66 0.13,-0.96c-0.15,-0.32 -0.56,-0.26 -0.79,-0.47c-0.23,-0.21 -0.32,-0.53 -0.55,-0.73c-0.65,-0.61 -1.49,-0.49 -2.26,-0.24" fill="#acdd4d" id="path1269" stroke-width="0.05"/>
    <path d="m3.13,8.31c0.16,-0.56 0.16,-1.16 0.36,-1.71c0.53,-1.42 1.71,-2.1 3.02,-2.6c-0.42,-0.53 -1.42,-0.58 -1.99,-0.3c-0.34,0.16 -0.59,0.46 -0.93,0.62c-0.33,0.14 -0.8,0.03 -1.04,0.36c-0.24,0.32 0.05,0.85 -0.07,1.23c-0.25,0.87 -0.4,2 0.65,2.4" fill="#acdd4d" id="path1265" stroke-width="0.05"/>
   </g>
   <path d="m14.2,10.38c-0.21,0.41 -0.47,0.81 -0.85,1.07c-0.48,0.31 -1.12,0.41 -1.67,0.56c-1.02,0.27 -1.95,0.68 -2.49,1.63c-0.18,0.32 -0.26,0.66 -0.31,1.02c1.45,-0.79 3.24,0.22 4.54,-1.11c0.2,-0.2 0.36,-0.43 0.47,-0.68c0.16,-0.36 0.27,-0.75 0.33,-1.14c0.08,-0.45 0.15,-0.91 -0.01,-1.34" fill="#659533" id="path1283" stroke-width="0.05"/>
   <path d="m1.06,10.38c-0.93,1.91 0.19,3.78 2.24,4.14c0.95,0.16 1.8,-0.26 2.69,0.25c-0.1,-1.02 -0.67,-1.95 -1.63,-2.39c-0.99,-0.45 -2.11,-0.32 -2.84,-1.27c-0.17,-0.22 -0.27,-0.47 -0.37,-0.73l-0.08,0" fill="#659533" id="path1281" stroke-width="0.05"/>
  </g>
 </g>
</svg>