<?xml version="1.0"?>
<svg width="307" height="300" xmlns="http://www.w3.org/2000/svg" xmlns:svg="http://www.w3.org/2000/svg" data-arp-injected="true" data-darkreader-mode="filter" data-name="Layer 1">
 <style class="darkreader" id="dark-reader-style">@media screen {

/* Leading rule */
html {
  -webkit-filter: invert(100%) hue-rotate(180deg) !important;
  filter: invert(100%) hue-rotate(180deg) !important;
}

/* Reverse rule */
img,
video,
:not(object):not(body)&gt;embed,
object,
svg image,
[style*=&quot;background:url&quot;],
[style*=&quot;background-image:url&quot;],
[style*=&quot;background: url&quot;],
[style*=&quot;background-image: url&quot;],
[background],
twitterwidget,
.sr-reader,
.sr-backdrop,
iframe:fullscreen,
[class=&quot;opinary-iframe&quot;] {
  -webkit-filter: invert(100%) hue-rotate(180deg) !important;
  filter: invert(100%) hue-rotate(180deg) !important;
}
[style*=&quot;background:url&quot;] *,
[style*=&quot;background-image:url&quot;] *,
[style*=&quot;background: url&quot;] *,
[style*=&quot;background-image: url&quot;] *,
input,
[background] *,
img[src^=&quot;https://s0.wp.com/latex.php&quot;],
twitterwidget .NaturalImage-image {
  -webkit-filter: none !important;
  filter: none !important;
}
.compatibility-with-darkreader-below-4-3-3 {
  background: white !important;
}

/* Text contrast */
html {
  text-shadow: 0 0 0 !important;
}

/* Full screen */
:-webkit-full-screen, :-webkit-full-screen * {
  -webkit-filter: none !important;
  filter: none !important;
}
:-moz-full-screen, :-moz-full-screen * {
  -webkit-filter: none !important;
  filter: none !important;
}
:fullscreen, :fullscreen * {
  -webkit-filter: none !important;
  filter: none !important;
}

/* Page background */
html {
  background: rgb(255,255,255) !important;
}

/* Custom rules */
.compatibility-with-darkreader-below-4-3-3 {
    background: white !important;
}

}</style>
 <defs>
  <style>.cls-1{fill:#91f291;}.cls-2{fill:#fff;}.cls-3{fill:#66023c;}.cls-4{fill:#ff0;}</style>
 </defs>
 <g class="layer">
  <title>Layer 1</title>
  <g id="svg_28">
   <path class="cls-3" d="m279.72,110.37l0,0s18.88,-25.29 -2.25,-44.28c-17.65,-15.85 -45.83,-13.87 -70.38,7.63c15,-31 10,-58.1 -11.59,-69.82c-24.57,-13.36 -42,12 -42.17,12.34l0,0s-17.47,-25.8 -42.18,-12.37s-27.68,47 -3.77,83.58c1.18,1.81 2.36,3.59 3.53,5.37c-1.3,-1.61 -2.62,-3.22 -3.94,-4.84c-27.56,-33.89 -60.45,-41.27 -80.76,-21.79s-1.26,43.65 -1,43.95l0,0s-29.88,8.82 -24.58,36.45s36.4,40.65 78.48,29c7.32,-2 14.49,-4.08 21.35,-6.07c-6.53,2.29 -13.27,4.69 -20,7.15c-41.62,15.06 -59.83,44.07 -48.2,70c11.57,25.76 41.11,15.77 41.47,15.65l0,0s-1.77,31.52 26.33,35.67c24.18,3.57 47.23,-14.82 55.21,-48.17c4.38,31.41 22,50.25 45.38,49.53c28.22,-0.87 30.24,-32 30.27,-32.38l0,0s28.46,13.66 43,-10.75c13.85,-23.24 2.31,-55.45 -33,-75.54c35.67,4.49 60.73,-9.42 64.82,-34.3c4.49,-27.94 -25.66,-35.94 -26.02,-36.01z" id="svg_4"/>
   <path class="cls-4" d="m232.95,152.31l-10.82,-1.06l-54.39,-5.35l38.14,-45.4l7.46,-8.89l-8.88,7.5l-45.26,38.26l-4.56,-58.61l-1,-13.28l-0.94,13.28l-4.26,59.55l-54.14,-45.76l6.26,7.33l38,46.29l-64.94,6.14l65.07,5.34l-45.35,54.7l55.62,-46.3l4,54.64l1,13.65l1.07,-13.59l4.27,-54.3l44.93,38.56l8.55,7.34l-7.11,-8.81l-37.29,-46.29l53.76,-4.1l10.81,-0.84zm-73.48,2.27l18.56,21.86l-22.83,-18.4l-1.73,28.95l-3.21,-28.68l-20.79,17.48l17.46,-21.08l-27.47,-2.94l27.87,-2.52l-18,-21.88l21.87,18l1.83,-29.34l3.07,29.74l22,-18.28l-18.93,22.82l29.34,1.87l-29.04,2.4z" id="svg_5"/>
   <circle class="cls-4" cx="211.66" cy="93.17" id="svg_6" r="9.34"/>
   <circle class="cls-4" cx="231.26" cy="152.62" id="svg_7" r="9.25"/>
   <circle class="cls-4" cx="153.66" cy="230.26" id="svg_8" r="9.6"/>
   <circle class="cls-4" cx="75.27" cy="152.62" id="svg_9" r="9.69"/>
   <circle class="cls-4" cx="94.7" cy="211.14" id="svg_10" r="9.69"/>
   <circle class="cls-4" cx="95.45" cy="93.88" id="svg_11" r="9.69"/>
   <circle class="cls-4" cx="153.66" cy="69.12" id="svg_12" r="9.69"/>
   <circle class="cls-4" cx="211.7" cy="211.05" id="svg_13" r="9.69"/>
   <path class="cls-3" d="m279.72,110.37l0,0s18.88,-25.29 -2.25,-44.28c-17.65,-15.85 -45.83,-13.87 -70.38,7.63c15,-31 10,-58.1 -11.59,-69.82c-24.57,-13.36 -42,12 -42.17,12.34l0,0s-17.47,-25.8 -42.18,-12.37s-27.68,47 -3.77,83.58c1.18,1.81 2.36,3.59 3.53,5.37c-1.3,-1.61 -2.62,-3.22 -3.94,-4.84c-27.56,-33.89 -60.45,-41.27 -80.76,-21.79s-1.26,43.65 -1,43.95l0,0s-29.88,8.82 -24.58,36.45s36.4,40.65 78.48,29c7.32,-2 14.49,-4.08 21.35,-6.07c-6.53,2.29 -13.27,4.69 -20,7.15c-41.62,15.06 -59.83,44.07 -48.2,70c11.57,25.76 41.11,15.77 41.47,15.65l0,0s-1.77,31.52 26.33,35.67c24.18,3.57 47.23,-14.82 55.21,-48.17c4.38,31.41 22,50.25 45.38,49.53c28.22,-0.87 30.24,-32 30.27,-32.38l0,0s28.46,13.66 43,-10.75c13.85,-23.24 2.31,-55.45 -33,-75.54c35.67,4.49 60.73,-9.42 64.82,-34.3c4.49,-27.94 -25.66,-35.94 -26.02,-36.01z" id="svg_17"/>
   <path class="cls-4" d="m232.95,152.31l-10.82,-1.06l-54.39,-5.35l38.14,-45.4l7.46,-8.89l-8.88,7.5l-45.26,38.26l-4.56,-58.61l-1,-13.28l-0.94,13.28l-4.26,59.55l-54.14,-45.76l6.26,7.33l38,46.29l-64.94,6.14l65.07,5.34l-45.35,54.7l55.62,-46.3l4,54.64l1,13.65l1.07,-13.59l4.27,-54.3l44.93,38.56l8.55,7.34l-7.11,-8.81l-37.29,-46.29l53.76,-4.1l10.81,-0.84zm-73.48,2.27l18.56,21.86l-22.83,-18.4l-1.73,28.95l-3.21,-28.68l-20.79,17.48l17.46,-21.08l-27.47,-2.94l27.87,-2.52l-18,-21.88l21.87,18l1.83,-29.34l3.07,29.74l22,-18.28l-18.93,22.82l29.34,1.87l-29.04,2.4z" id="svg_18"/>
   <circle class="cls-4" cx="211.66" cy="93.17" id="svg_19" r="9.34"/>
   <circle class="cls-4" cx="231.26" cy="152.62" id="svg_20" r="9.25"/>
   <circle class="cls-4" cx="153.66" cy="230.26" id="svg_21" r="9.6"/>
   <circle class="cls-4" cx="75.27" cy="152.62" id="svg_22" r="9.69"/>
   <circle class="cls-4" cx="94.7" cy="211.14" id="svg_23" r="9.69"/>
   <circle class="cls-4" cx="95.45" cy="93.88" id="svg_24" r="9.69"/>
   <circle class="cls-4" cx="153.66" cy="69.12" id="svg_25" r="9.69"/>
   <circle class="cls-4" cx="211.7" cy="211.05" id="svg_26" r="9.69"/>
  </g>
 </g>
</svg>