<?xml version="1.0"?>
<svg width="320" height="320" xmlns="http://www.w3.org/2000/svg" xmlns:svg="http://www.w3.org/2000/svg" data-arp-injected="true" version="1.1">
 <metadata id="metadata8">image/svg+xml</metadata>

 <g class="layer">
  <title>Layer 1</title>
  <g id="svg_1">
   <path d="m93.82,309.1c-9.15,-0.89 -21.28,-4.9 -27.56,-9.11c-4.65,-3.12 -9.18,-8.5 -11.54,-13.7c-6.74,-14.86 -5.53,-36.36 3.04,-53.81c3.07,-6.25 6.27,-9.69 13.5,-14.51c12.23,-8.16 35.72,-17.57 60.64,-24.31l3.43,-0.92l3.45,1.8c5.98,3.11 10.67,6.51 15.59,11.31l2.69,2.63l-0.28,4.64c-2.16,35.73 -7.7,60.45 -16.56,73.92c-2.4,3.65 -9.81,11.06 -13.66,13.66c-9.88,6.66 -21.04,9.53 -32.74,8.4z" fill="#c76bc5" id="path837" stroke-width="0.32"/>
   <path d="m216.4,309.1c-8.11,-0.79 -15.89,-3.63 -22.96,-8.4c-3.85,-2.6 -11.25,-10 -13.7,-13.7c-8.77,-13.25 -14.37,-38.29 -16.52,-73.88l-0.28,-4.64l2.69,-2.62c4.92,-4.8 9.61,-8.21 15.59,-11.32l3.45,-1.8l3.43,0.93c14.31,3.86 31.37,9.76 42.6,14.7c13.26,5.85 23.04,12.14 27.77,17.86c2.25,2.72 5.44,9.19 7.26,14.73c5.34,16.28 5.18,32.92 -0.45,45.33c-2.36,5.2 -6.89,10.58 -11.54,13.7c-4.57,3.07 -14.31,6.82 -21.15,8.13c-6.22,1.21 -10.92,1.49 -16.19,0.98z" fill="#c76bc5" id="path835" stroke-width="0.32"/>
   <path d="m62.72,195.5c-12.31,-0.58 -22.75,-2.51 -27.69,-5.1c-8.13,-4.28 -14.66,-14 -17.22,-25.62c-1.26,-5.73 -1.6,-9.24 -1.58,-16.14c0.03,-10.18 1.57,-20.23 4.46,-29.12c3.4,-10.46 12.15,-19.03 22.51,-22.03c4.16,-1.2 7.39,-1.6 12.64,-1.58c17.68,0.08 35.75,8.59 54.4,25.6c8.84,8.07 19.12,19.89 25.53,29.38c2.06,3.06 2.17,3.3 2.49,5.91c0.76,6.07 -0.91,14.05 -4.52,21.6c-2.07,4.34 -3.77,6.88 -5.3,7.88c-7.38,4.88 -24.22,8.19 -47,9.23c-7.7,0.35 -11.2,0.35 -18.72,0l0,-0.01z" fill="#c76bc5" id="path833" stroke-width="0.32"/>
   <path d="m237.75,195.52c-25.27,-1.21 -44.64,-5.77 -48.34,-11.38c-5.38,-8.17 -8.62,-19.72 -7.67,-27.35c0.38,-3.03 0.85,-3.87 6.07,-10.87c12.57,-16.87 27.64,-31.01 42.34,-39.73c17.62,-10.44 36.66,-13.22 50.45,-7.35c8.44,3.59 15.69,11.56 18.69,20.55c4.44,13.28 5.79,31.69 3.24,44.08c-1.41,6.81 -4.25,13.45 -7.78,18.18c-3.27,4.38 -7.61,7.98 -11.57,9.59c-2.41,0.97 -7.24,2.2 -11.18,2.82c-8.38,1.34 -23.39,1.98 -34.25,1.46z" fill="#c76bc5" id="path831" stroke-width="0.32"/>
   <circle cx="160.14" cy="175.73" fill="#f996c9" fill-rule="evenodd" id="path825" r="21.45" stroke-miterlimit="4" stroke-width="0.05"/>
   <path d="m157.95,188.47c-6.65,-1.14 -11.65,-8.1 -10.46,-14.55c1.62,-8.74 10.58,-13.33 18.46,-9.45c4.78,2.35 7.7,7.99 6.86,13.22c-1.15,7.15 -7.82,11.99 -14.86,10.78z" fill="#fff71e" id="path829" stroke-width="0.32"/>
   <path d="m155.84,146.87c-1.85,-0.12 -3.98,-0.33 -4.73,-0.45c-3.19,-0.55 -11.66,-7.25 -21.03,-16.65c-18.05,-18.09 -30.84,-37.99 -35.2,-54.77c-2.05,-7.89 -2.47,-16.13 -1.14,-22.52c2.32,-11.18 9.07,-20.44 20.52,-28.14c10.35,-6.95 21.46,-11.16 34.38,-13.02c4.93,-0.71 16.49,-0.69 22.08,0.04c17.06,2.23 34.05,10.17 44.46,20.78c5.89,6.01 9.86,13.56 11.29,21.46c0.69,3.84 0.67,11.19 -0.03,15.2c-1.69,9.56 -5.63,19.58 -11.75,29.79c-9.9,16.54 -28.16,36.61 -41.33,45.43c-3.22,2.16 -4.13,2.46 -8.09,2.7c-1.58,0.1 -3.59,0.22 -4.47,0.28c-0.88,0.05 -3.11,-0.01 -4.96,-0.13z" fill="#c76bc5" id="path823" stroke-width="0.32"/>
  </g>
 </g>
</svg>